<?xml version="1.0" encoding="UTF-8"?>
<svg xmlns="http://www.w3.org/2000/svg" xmlns:xlink="http://www.w3.org/1999/xlink" width="97px" height="24px" viewBox="0 0 96 24" version="1.1">
<g id="surface1">
<path style=" stroke:none;fill-rule:nonzero;fill:rgb(13.72549%,12.156863%,12.54902%);fill-opacity:1;" d="M 45.996094 8.179688 L 48.25 16.933594 L 46.546875 16.933594 L 45.039062 10.628906 L 42.222656 16.933594 L 40.792969 16.933594 L 37.984375 10.667969 L 36.441406 16.933594 L 34.78125 16.933594 L 37.007812 8.179688 L 38.480469 8.179688 L 41.515625 14.960938 L 44.539062 8.179688 Z M 45.996094 8.179688 "/>
<path style=" stroke:none;fill-rule:nonzero;fill:rgb(13.72549%,12.156863%,12.54902%);fill-opacity:1;" d="M 54.65625 11.5625 L 54.65625 10.546875 L 56.296875 10.546875 L 56.296875 16.933594 L 54.65625 16.933594 L 54.65625 15.90625 C 54.222656 16.640625 53.332031 17.070312 52.25 17.070312 C 49.984375 17.070312 48.71875 15.46875 48.71875 13.613281 C 48.71875 11.832031 49.925781 10.398438 52.003906 10.398438 C 53.199219 10.398438 54.1875 10.8125 54.65625 11.5625 Z M 50.464844 13.699219 C 50.464844 14.875 51.195312 15.882812 52.621094 15.882812 C 53.992188 15.882812 54.742188 14.902344 54.742188 13.734375 C 54.742188 12.566406 53.972656 11.578125 52.550781 11.578125 C 51.175781 11.578125 50.464844 12.570312 50.464844 13.699219 Z M 50.464844 13.699219 "/>
<path style=" stroke:none;fill-rule:nonzero;fill:rgb(13.72549%,12.156863%,12.54902%);fill-opacity:1;" d="M 59.992188 16.933594 L 58.355469 16.933594 L 58.355469 10.546875 L 59.992188 10.546875 L 59.992188 11.976562 C 60.425781 10.996094 61.304688 10.398438 62.28125 10.398438 C 62.628906 10.394531 62.976562 10.453125 63.304688 10.570312 L 62.957031 11.78125 C 62.671875 11.707031 62.382812 11.664062 62.089844 11.660156 C 60.90625 11.660156 59.992188 12.558594 59.992188 13.878906 Z M 59.992188 16.933594 "/>
<path style=" stroke:none;fill-rule:nonzero;fill:rgb(13.72549%,12.156863%,12.54902%);fill-opacity:1;" d="M 64.125 8.859375 C 64.117188 8.625 64.210938 8.402344 64.378906 8.238281 C 64.546875 8.074219 64.773438 7.992188 65.003906 8.003906 C 65.242188 7.996094 65.46875 8.085938 65.640625 8.253906 C 65.808594 8.421875 65.898438 8.652344 65.894531 8.890625 C 65.894531 9.3125 65.605469 9.738281 65.003906 9.738281 C 64.769531 9.746094 64.542969 9.660156 64.375 9.492188 C 64.207031 9.324219 64.117188 9.097656 64.125 8.859375 Z M 64.195312 10.546875 L 65.835938 10.546875 L 65.835938 15.214844 C 65.835938 15.503906 65.894531 15.710938 66.136719 15.710938 C 66.242188 15.707031 66.347656 15.695312 66.449219 15.675781 L 66.703125 16.875 C 66.355469 17.007812 65.988281 17.074219 65.617188 17.070312 C 64.929688 17.070312 64.195312 16.863281 64.195312 15.296875 Z M 64.195312 10.546875 "/>
<path style=" stroke:none;fill-rule:nonzero;fill:rgb(13.72549%,12.156863%,12.54902%);fill-opacity:1;" d="M 73.160156 11.5625 L 73.160156 10.546875 L 74.796875 10.546875 L 74.796875 16.933594 L 73.160156 16.933594 L 73.160156 15.90625 C 72.726562 16.640625 71.832031 17.070312 70.75 17.070312 C 68.484375 17.070312 67.222656 15.46875 67.222656 13.613281 C 67.222656 11.832031 68.425781 10.398438 70.507812 10.398438 C 71.703125 10.398438 72.6875 10.8125 73.160156 11.5625 Z M 68.964844 13.699219 C 68.964844 14.875 69.695312 15.882812 71.125 15.882812 C 72.496094 15.882812 73.242188 14.902344 73.242188 13.734375 C 73.242188 12.566406 72.472656 11.578125 71.054688 11.578125 C 69.679688 11.578125 68.964844 12.570312 68.964844 13.699219 Z M 68.964844 13.699219 "/>
<path style=" stroke:none;fill-rule:nonzero;fill:rgb(13.72549%,12.156863%,12.54902%);fill-opacity:1;" d="M 77.316406 8.179688 L 81.242188 8.179688 C 84.542969 8.179688 86.195312 10.019531 86.171875 12.558594 C 86.195312 15.203125 84.375 16.933594 81.53125 16.933594 L 77.316406 16.933594 Z M 78.398438 8.957031 L 78.398438 16.171875 L 81.390625 16.171875 C 84.015625 16.171875 85.015625 14.390625 85.015625 12.535156 C 85.015625 10.4375 83.761719 8.957031 81.390625 8.957031 Z M 78.398438 8.957031 "/>
<path style=" stroke:none;fill-rule:nonzero;fill:rgb(13.72549%,12.156863%,12.54902%);fill-opacity:1;" d="M 92.867188 16.933594 L 87.878906 16.933594 L 87.878906 8.179688 L 92.375 8.179688 C 94.097656 8.179688 95.734375 8.507812 95.710938 10.449219 C 95.710938 11.820312 94.867188 12.195312 93.976562 12.339844 C 95.242188 12.449219 96 13.261719 96 14.570312 C 96.011719 16.53125 94.300781 16.933594 92.867188 16.933594 Z M 92.492188 12 C 94.214844 12 94.601562 11.332031 94.601562 10.484375 C 94.601562 9.210938 93.832031 8.917969 92.492188 8.917969 L 88.914062 8.917969 L 88.914062 12 Z M 92.542969 12.734375 L 88.914062 12.734375 L 88.914062 16.191406 L 92.703125 16.191406 C 93.765625 16.191406 94.882812 15.839844 94.882812 14.492188 C 94.878906 12.945312 93.589844 12.742188 92.542969 12.742188 Z M 92.542969 12.734375 "/>
<path style=" stroke:none;fill-rule:nonzero;fill:rgb(13.72549%,12.156863%,12.54902%);fill-opacity:1;" d="M 36.398438 0.140625 C 36.300781 0.0585938 36.175781 0.015625 36.042969 0.0195312 C 35.691406 0.0195312 35.234375 0.265625 34.992188 0.386719 L 34.894531 0.4375 C 34.480469 0.640625 34.035156 0.753906 33.578125 0.777344 C 33.109375 0.792969 32.703125 0.820312 32.179688 0.875 C 29.058594 1.199219 27.671875 3.601562 26.332031 5.925781 C 25.601562 7.191406 24.851562 8.5 23.816406 9.511719 C 23.601562 9.71875 23.375 9.914062 23.136719 10.09375 C 22.070312 10.894531 20.726562 11.460938 19.679688 11.863281 C 18.671875 12.25 17.574219 12.597656 16.515625 12.933594 C 15.542969 13.242188 14.628906 13.53125 13.785156 13.847656 C 13.402344 13.992188 13.082031 14.09375 12.796875 14.195312 C 12.027344 14.453125 11.472656 14.636719 10.664062 15.195312 C 10.351562 15.410156 10.035156 15.648438 9.8125 15.824219 C 9.171875 16.339844 8.605469 16.941406 8.125 17.613281 C 7.71875 18.234375 7.246094 18.808594 6.714844 19.328125 C 6.546875 19.496094 6.242188 19.574219 5.789062 19.574219 C 5.257812 19.574219 4.613281 19.460938 3.929688 19.347656 C 3.226562 19.222656 2.5 19.101562 1.878906 19.101562 C 1.371094 19.101562 0.984375 19.183594 0.691406 19.351562 C 0.691406 19.351562 0.207031 19.640625 0 20.007812 L 0.203125 20.101562 C 0.515625 20.269531 0.804688 20.480469 1.066406 20.722656 C 1.335938 20.976562 1.636719 21.191406 1.960938 21.363281 C 2.066406 21.40625 2.160156 21.46875 2.238281 21.550781 C 2.152344 21.671875 2.027344 21.835938 1.898438 22.011719 C 1.175781 22.957031 0.757812 23.558594 1 23.882812 C 1.109375 23.941406 1.238281 23.972656 1.363281 23.96875 C 2.933594 23.96875 3.773438 23.558594 4.84375 23.039062 C 5.15625 22.898438 5.472656 22.742188 5.839844 22.582031 C 6.460938 22.308594 7.132812 21.875 7.84375 21.417969 C 8.785156 20.804688 9.757812 20.175781 10.703125 19.875 C 11.480469 19.632812 12.289062 19.519531 13.101562 19.535156 C 14.101562 19.535156 15.148438 19.667969 16.160156 19.800781 C 16.914062 19.898438 17.695312 19.996094 18.460938 20.042969 C 18.761719 20.0625 19.035156 20.070312 19.304688 20.070312 C 19.664062 20.070312 20.023438 20.050781 20.378906 20.011719 L 20.464844 19.984375 C 21 19.652344 21.253906 18.9375 21.5 18.246094 C 21.65625 17.800781 21.785156 17.402344 21.992188 17.144531 C 22.003906 17.132812 22.015625 17.121094 22.03125 17.113281 C 22.050781 17.101562 22.078125 17.105469 22.09375 17.121094 C 22.09375 17.121094 22.09375 17.121094 22.09375 17.140625 C 21.964844 19.839844 20.886719 21.546875 19.796875 23.078125 L 19.066406 23.863281 C 19.066406 23.863281 20.085938 23.863281 20.667969 23.636719 C 22.785156 23 24.386719 21.59375 25.550781 19.351562 C 25.839844 18.777344 26.09375 18.1875 26.320312 17.585938 C 26.339844 17.535156 26.523438 17.441406 26.507812 17.707031 C 26.507812 17.785156 26.496094 17.871094 26.488281 17.953125 C 26.488281 18.003906 26.484375 18.058594 26.480469 18.113281 C 26.449219 18.488281 26.359375 19.285156 26.359375 19.285156 L 27.011719 18.933594 C 28.59375 17.925781 29.8125 15.90625 30.730469 12.753906 C 31.113281 11.441406 31.394531 10.136719 31.644531 8.988281 C 31.941406 7.613281 32.199219 6.425781 32.496094 5.964844 C 32.957031 5.246094 33.65625 4.757812 34.335938 4.285156 L 34.613281 4.089844 C 35.464844 3.488281 36.316406 2.789062 36.503906 1.492188 L 36.503906 1.464844 C 36.644531 0.503906 36.53125 0.253906 36.398438 0.140625 Z M 36.398438 0.140625 "/>
</g>
</svg>
