<svg xmlns="http://www.w3.org/2000/svg" xmlns:xlink="http://www.w3.org/1999/xlink" width="500" zoomAndPan="magnify" viewBox="0 0 375 374.999991" height="500" preserveAspectRatio="xMidYMid meet" version="1.0"><defs><g/></defs><g fill="#ffffff" fill-opacity="1"><g transform="translate(53.192052, 243.369838)"><g><path d="M 203.828125 18.09375 C 204.710938 18.875 205.101562 19.710938 205 20.609375 C 204.90625 21.515625 204.640625 22.335938 204.203125 23.078125 C 204.203125 23.222656 204.203125 23.296875 204.203125 23.296875 C 201.078125 30.660156 196.375 36.222656 190.09375 39.984375 C 183.820312 43.742188 176.269531 45.304688 167.4375 44.671875 C 158.9375 43.847656 152.269531 40.882812 147.4375 35.78125 C 142.601562 30.675781 139.820312 23.828125 139.09375 15.234375 C 138.75 11.035156 138.90625 6.859375 139.5625 2.703125 C 140.21875 -1.441406 141.035156 -5.585938 142.015625 -9.734375 C 142.648438 -12.328125 143.285156 -14.914062 143.921875 -17.5 C 145.085938 -21.800781 146.113281 -26.148438 147 -30.546875 C 148.269531 -37.429688 147.535156 -42.210938 144.796875 -44.890625 C 142.066406 -47.578125 138.195312 -49.003906 133.1875 -49.171875 C 128.1875 -49.347656 123.125 -49.09375 118 -48.40625 C 115.0625 -48.113281 112.375 -47.921875 109.9375 -47.828125 C 108.957031 -47.828125 108.195312 -47.554688 107.65625 -47.015625 C 107.125 -46.484375 106.640625 -45.875 106.203125 -45.1875 C 103.609375 -40.601562 101.09375 -35.941406 98.65625 -31.203125 C 75.851562 11.765625 51.144531 53.613281 24.53125 94.34375 C 20.4375 100.539062 16.191406 106.664062 11.796875 112.71875 C 10.816406 114.1875 9.71875 115.492188 8.5 116.640625 C 7.28125 117.785156 5.789062 118.628906 4.03125 119.171875 C 0.800781 120.097656 -1.75 119.890625 -3.625 118.546875 C -5.507812 117.203125 -6.375 114.820312 -6.21875 111.40625 C -6.03125 107.445312 -5.445312 103.46875 -4.46875 99.46875 C 1.34375 75.195312 8.835938 54.414062 18.015625 37.125 C 27.191406 19.84375 38.273438 4.222656 51.265625 -9.734375 C 64.253906 -23.703125 79.242188 -37.789062 96.234375 -52 C 98.921875 -54.144531 101.070312 -56.78125 102.6875 -59.90625 C 104.9375 -64.207031 107.179688 -68.503906 109.421875 -72.796875 C 117.722656 -88.765625 125.898438 -104.78125 133.953125 -120.84375 C 142.015625 -136.914062 149.632812 -153.175781 156.8125 -169.625 C 163.894531 -186.03125 167.546875 -198.296875 167.765625 -206.421875 C 167.984375 -214.554688 164.222656 -218.851562 156.484375 -219.3125 C 148.742188 -219.78125 136.546875 -216.695312 119.890625 -210.0625 C 103.585938 -203.519531 87.625 -196.21875 72 -188.15625 C 56.375 -180.101562 40.96875 -171.507812 25.78125 -162.375 C 20.113281 -159.050781 13.117188 -154.644531 4.796875 -149.15625 C -3.523438 -143.664062 -11.738281 -137.757812 -19.84375 -131.4375 C -27.945312 -125.113281 -34.640625 -118.921875 -39.921875 -112.859375 C -43.773438 -108.273438 -44.738281 -105.148438 -42.8125 -103.484375 C -40.882812 -101.828125 -37.015625 -100.878906 -31.203125 -100.640625 C -28.421875 -100.535156 -23.671875 -100.507812 -16.953125 -100.5625 C -10.242188 -100.613281 -2.757812 -100.957031 5.5 -101.59375 C 10.132812 -101.925781 14.648438 -102.265625 19.046875 -102.609375 C 25.679688 -103.242188 31.367188 -103.671875 36.109375 -103.890625 C 40.847656 -104.109375 43.65625 -103.828125 44.53125 -103.046875 C 44.820312 -102.222656 41.535156 -101.296875 34.671875 -100.265625 C 27.816406 -99.242188 19.359375 -98.304688 9.296875 -97.453125 C -0.753906 -96.597656 -10.503906 -96.082031 -19.953125 -95.90625 C -29.398438 -95.738281 -36.539062 -96.09375 -41.375 -96.96875 C -49.875 -98.78125 -53.742188 -102.078125 -52.984375 -106.859375 C -52.234375 -111.640625 -48.144531 -117.410156 -40.71875 -124.171875 C -33.300781 -130.941406 -23.851562 -138.132812 -12.375 -145.75 C -0.90625 -153.363281 11.40625 -160.96875 24.5625 -168.5625 C 37.726562 -176.15625 50.460938 -183.195312 62.765625 -189.6875 C 75.066406 -196.1875 85.671875 -201.582031 94.578125 -205.875 C 103.492188 -210.175781 109.515625 -212.960938 112.640625 -214.234375 C 125.441406 -219.410156 136.695312 -222.910156 146.40625 -224.734375 C 156.125 -226.566406 163.726562 -226.078125 169.21875 -223.265625 C 174.71875 -220.460938 177.488281 -214.765625 177.53125 -206.171875 C 177.582031 -197.578125 174.335938 -185.445312 167.796875 -169.78125 C 162.523438 -157.320312 156.910156 -144.988281 150.953125 -132.78125 C 144.992188 -120.582031 138.9375 -108.425781 132.78125 -96.3125 C 130.4375 -91.675781 128.019531 -86.890625 125.53125 -81.953125 C 124.164062 -79.273438 122.675781 -76.421875 121.0625 -73.390625 C 122.875 -73.828125 124.34375 -74.398438 125.46875 -75.109375 C 126.59375 -75.816406 127.59375 -76.535156 128.46875 -77.265625 C 128.90625 -77.609375 129.394531 -77.925781 129.9375 -78.21875 C 151.414062 -93.945312 174.875 -109.78125 200.3125 -125.71875 C 225.757812 -141.664062 252.503906 -156.535156 280.546875 -170.328125 C 308.597656 -184.117188 337.285156 -195.578125 366.609375 -204.703125 C 395.929688 -213.835938 425.203125 -219.476562 454.421875 -221.625 C 483.648438 -223.78125 512.179688 -221.21875 540.015625 -213.9375 C 540.304688 -213.84375 540.609375 -213.570312 540.921875 -213.125 C 541.242188 -212.6875 541.40625 -212.25 541.40625 -211.8125 C 541.40625 -211.175781 541.171875 -210.675781 540.703125 -210.3125 C 540.242188 -209.945312 539.625 -209.765625 538.84375 -209.765625 C 538.300781 -209.617188 537.710938 -209.664062 537.078125 -209.90625 C 513.890625 -215.914062 489.851562 -218.222656 464.96875 -216.828125 C 440.09375 -215.441406 414.875 -211.253906 389.3125 -204.265625 C 363.757812 -197.285156 338.441406 -188.3125 313.359375 -177.34375 C 288.285156 -166.382812 264.003906 -154.300781 240.515625 -141.09375 C 217.035156 -127.894531 194.957031 -114.359375 174.28125 -100.484375 C 153.601562 -86.617188 134.890625 -73.289062 118.140625 -60.5 C 118.046875 -60.40625 118 -60.359375 118 -60.359375 C 116.675781 -59.523438 115.425781 -58.570312 114.25 -57.5 C 113.082031 -56.425781 112.546875 -55.507812 112.640625 -54.75 C 112.742188 -53.988281 114.085938 -53.660156 116.671875 -53.765625 C 117.453125 -53.765625 118.210938 -53.765625 118.953125 -53.765625 C 123.679688 -54.203125 128.644531 -54.332031 133.84375 -54.15625 C 139.050781 -53.988281 143.800781 -53.097656 148.09375 -51.484375 C 154.34375 -48.898438 157.46875 -44.285156 157.46875 -37.640625 C 157.375 -34.515625 156.984375 -31.460938 156.296875 -28.484375 C 155.222656 -23.503906 154.101562 -18.550781 152.9375 -13.625 C 151.757812 -8.25 150.585938 -2.828125 149.421875 2.640625 C 148.003906 9.085938 148.222656 15.53125 150.078125 21.96875 C 151.878906 27.539062 154.707031 31.863281 158.5625 34.9375 C 162.425781 38.007812 166.832031 39.617188 171.78125 39.765625 C 176.738281 39.910156 181.6875 38.375 186.625 35.15625 C 190.28125 32.71875 193.234375 29.566406 195.484375 25.703125 C 195.921875 24.828125 196.359375 23.953125 196.796875 23.078125 C 197.085938 22.242188 197.457031 21.4375 197.90625 20.65625 C 198.78125 19.289062 199.78125 18.363281 200.90625 17.875 C 202.03125 17.382812 203.003906 17.457031 203.828125 18.09375 Z M 85.109375 -27.03125 C 85.203125 -27.21875 85.375 -27.484375 85.625 -27.828125 C 86.007812 -28.566406 86.503906 -29.472656 87.109375 -30.546875 C 87.722656 -31.617188 88.1875 -32.640625 88.5 -33.609375 C 88.820312 -34.585938 88.847656 -35.1875 88.578125 -35.40625 C 88.316406 -35.632812 87.523438 -35.207031 86.203125 -34.125 C 64.328125 -16.9375 47.128906 2.367188 34.609375 23.796875 C 22.085938 45.234375 12.703125 69.820312 6.453125 97.5625 C 5.910156 100 5.859375 101.351562 6.296875 101.625 C 6.734375 101.894531 7.441406 101.53125 8.421875 100.53125 C 9.398438 99.53125 10.335938 98.359375 11.234375 97.015625 C 12.140625 95.671875 12.8125 94.726562 13.25 94.1875 C 26.050781 74.414062 38.457031 54.457031 50.46875 34.3125 C 62.476562 14.175781 74.023438 -6.269531 85.109375 -27.03125 Z M 85.109375 -27.03125 "/></g></g></g></svg>